<svg width="60" height="48" viewBox="0 0 60 48" fill="none" xmlns="http://www.w3.org/2000/svg">
<g clip-path="url(#clip0_13691_68595)">
<path d="M16.9136 19.0332C16.8461 21.1566 17.9074 22.0969 17.9336 22.6941C17.9212 22.8157 17.8798 22.9325 17.8129 23.0347C17.746 23.137 17.6556 23.2218 17.5493 23.2819L16.3493 24.1219C16.194 24.2308 16.0109 24.2932 15.8214 24.3019C15.7811 24.3001 15.0536 24.4735 13.9014 21.901C13.1985 22.7785 12.3041 23.4835 11.2867 23.9621C10.2693 24.4406 9.15593 24.68 8.03175 24.6619C6.5055 24.7454 2.36925 23.7957 2.58206 19.3922C2.433 15.8035 5.77519 13.5741 9.23175 13.7626C9.89738 13.7644 11.2568 13.7972 13.6371 14.3504V12.886C13.8893 10.4054 12.2589 8.48068 9.43613 8.76943C9.21113 8.77037 7.61738 8.72255 5.13863 9.71724C4.44863 10.0341 4.3605 9.98162 4.13082 9.98162C3.43613 9.98162 3.72206 7.96787 3.85519 7.71287C4.34363 7.11287 7.21706 5.99255 10.0371 6.00849C11.9226 5.84177 13.798 6.42369 15.258 7.62849C15.8514 8.29236 16.3041 9.0696 16.5888 9.91327C16.8736 10.7569 16.9844 11.6496 16.9146 12.5372L16.9136 19.0332ZM8.81175 22.0697C11.8521 22.0257 13.1393 20.1976 13.4327 19.2132C13.6633 18.271 13.6249 17.6747 13.6249 16.6444C12.7183 16.4269 11.4133 16.1897 9.91613 16.1879C8.49582 16.081 5.90175 16.7157 6.003 19.2122C5.88675 20.7863 7.0455 22.156 8.81175 22.0697ZM24.8355 24.2307C24.0986 24.2982 23.7555 23.7751 23.6468 23.2585L18.978 7.82255C18.8871 7.56193 18.8271 7.29287 18.798 7.01818C18.7808 6.90493 18.8092 6.78948 18.8771 6.69719C18.9449 6.6049 19.0466 6.54333 19.1599 6.52599C19.1824 6.52224 18.9602 6.52599 21.2458 6.52599C22.0689 6.44349 22.3371 7.0913 22.4224 7.49818L25.7711 20.701L28.8799 7.49818C28.9296 7.1963 29.1555 6.46037 30.0799 6.53818H31.6886C31.8921 6.5213 32.7302 6.4913 32.8774 7.51037L36.0105 20.8819L39.4671 7.51037C39.5121 7.30599 39.7221 6.44443 40.6558 6.53818H42.5046C42.5843 6.52599 43.0811 6.46224 42.9968 7.34255C42.9564 7.51599 43.3164 6.34318 38.0514 23.2707C37.9436 23.7872 37.5996 24.3104 36.8627 24.2429H35.1105C34.0849 24.3507 33.9377 23.3372 33.9218 23.2351L30.813 10.3791L27.7399 23.2219C27.7249 23.3241 27.5777 24.3376 26.5511 24.2297H24.8355V24.2307ZM50.4743 24.7585C49.923 24.7594 47.2943 24.7304 45.0968 23.6063C44.8778 23.5136 44.6914 23.3581 44.561 23.1593C44.4307 22.9605 44.3623 22.7274 44.3646 22.4897V21.4819C44.3646 20.6897 44.9458 20.8351 45.1924 20.9297C46.1336 21.3104 46.7374 21.5991 47.8933 21.8297C51.3293 22.5357 52.8405 21.6141 53.2108 21.4097C54.4436 20.6776 54.5411 19.0022 53.703 18.1332C52.7205 17.3091 52.2518 17.2782 48.7221 16.1644C48.2871 16.0435 44.6252 14.8885 44.6168 11.2557C44.5596 8.60818 46.9652 5.9888 51.1343 6.01037C52.3221 6.00943 55.4871 6.39755 56.3439 7.47474C56.4705 7.67068 56.5333 7.9013 56.5239 8.13474V9.08256C56.5239 9.49881 56.3721 9.70693 56.0674 9.70693C55.3446 9.6263 54.0621 8.65974 51.4586 8.69912C50.8127 8.66537 47.7189 8.78443 47.8577 11.0401C47.8174 12.8176 50.3524 13.4841 50.6421 13.561C54.0602 14.5894 55.203 14.7601 56.5596 16.3341C58.1664 18.4201 57.3002 20.8622 56.9674 21.5316C55.1786 25.0463 50.553 24.7604 50.4743 24.7585ZM54.243 34.5891C47.6777 39.4379 38.1471 42.0188 30.0096 42.0188C19.0296 42.0912 8.41971 38.0538 0.265502 30.7004C-0.346685 30.1482 0.193315 29.3916 0.93769 29.8126C9.98312 34.9868 20.2244 37.7055 30.6452 37.6988C38.4271 37.6571 46.1242 36.0785 53.2943 33.0535C54.3986 32.5847 55.3352 33.7847 54.243 34.5891ZM56.9796 31.4682C56.1396 30.3882 51.4221 30.9638 49.3099 31.216C48.6733 31.2882 48.5655 30.736 49.1421 30.3282C52.8986 27.6872 59.0683 28.4438 59.7771 29.3316C60.4849 30.2194 59.5849 36.4013 56.0683 39.3544C55.5283 39.811 55.0118 39.5701 55.2518 38.9701C56.043 36.9779 57.8196 32.5491 56.9796 31.4682Z" fill="white" fill-opacity="0.71"/>
</g>
<defs>
<clipPath id="clip0_13691_68595">
<rect width="60" height="48" fill="white"/>
</clipPath>
</defs>
</svg>
