<svg width="48" height="48" viewBox="0 0 48 48" fill="none" xmlns="http://www.w3.org/2000/svg">
<path d="M41.45 12.3318C40.7832 12.3357 40.1243 12.4773 39.5148 12.7479C38.9053 13.0184 38.3583 13.4119 37.908 13.9038C37.476 11.8578 36.19 11.2558 34.722 10.5738C33.792 10.1418 33.404 9.18181 33.278 8.48781C33.23 8.22181 33.012 8.00781 32.742 8.00781C32.474 8.00781 32.218 8.11781 32.09 8.35381C31.81 8.85381 31.382 9.95381 31.344 11.9738C31.286 14.9798 33.764 17.2978 35.012 18.0798C34.884 18.8198 34.432 19.9638 34.222 20.4438C32.8015 19.921 31.5213 19.0763 30.482 17.9758C28.566 15.8898 27.006 14.4138 24.97 12.9698C22.934 11.5258 24.296 9.80381 25.15 9.39381C26.004 8.98381 25.356 8.56381 23.226 8.63581C21.52 8.69381 19.092 9.69581 18.092 10.1898C17.072 9.86581 14.948 9.80181 14.016 9.80981C4.85 9.80981 2 17.9598 2 21.9998C2 34.1718 11.746 39.9998 18.746 39.9998C26.662 39.9998 29.436 36.7718 29.436 36.7718C29.764 36.9738 30.956 37.4038 33.112 37.4958C35.81 37.6098 36.814 36.8478 36.892 36.2618C36.97 35.6758 36.534 35.4618 36.152 35.2818C35.772 35.1038 35.172 34.7618 34.042 34.3918C33.136 34.0978 32.728 33.7758 32.638 33.6518C38.098 28.7078 39.098 21.7818 38.944 18.8378C43.168 18.6738 44.83 15.8618 45.378 14.4378C45.938 12.9858 46.286 11.0058 45.706 10.5578C45.242 10.1978 44.854 10.6298 44.718 10.8918C43.974 11.6838 43.43 12.3298 41.448 12.3298" stroke="white" stroke-opacity="0.71" stroke-width="1.5" stroke-linecap="round" stroke-linejoin="round"/>
<path d="M23.9967 21.1357C23.9967 21.1357 25.7487 20.5957 27.2867 21.6457C29.3687 23.0657 29.9967 24.9977 29.9967 24.9977M26.9967 32.9977C26.9967 32.9977 24.9147 31.9837 21.7887 27.9197C18.0327 23.0397 14.4947 17.7717 7.0547 19.4937C7.0547 19.4937 6.99669 29.9937 16.9967 32.9977" stroke="white" stroke-opacity="0.71" stroke-width="1.5" stroke-linecap="round" stroke-linejoin="round"/>
</svg>
