<svg width="134" height="65" viewBox="0 0 134 65" fill="none" xmlns="http://www.w3.org/2000/svg">
<g clip-path="url(#clip0_13973_82303)">
<path d="M3.91901 38.1137C1.63902 35.6117 0.5 32.5432 0.5 28.9083C0.5 25.2692 1.63902 22.1912 3.91901 19.6718C6.20287 17.1483 9.1036 15.8867 12.6212 15.8867C15.8546 15.8867 18.5156 16.907 20.6041 18.9473V16.6033H29.0201V41.151H20.7046V38.3784H20.6041C18.5156 40.7051 15.8546 41.8675 12.6212 41.8675C9.1036 41.8675 6.20287 40.6175 3.91901 38.1137ZM11.0742 24.7416C9.97963 25.8281 9.43428 27.2163 9.43428 28.9083C9.43428 30.5963 9.95643 31.9748 11.0046 33.0437C12.0508 34.1088 13.4296 34.6403 15.143 34.6403C16.7867 34.6403 18.1403 34.101 19.204 33.0203C20.2657 31.9358 20.7975 30.5632 20.7975 28.9005C20.7975 27.2144 20.2502 25.8281 19.1576 24.7416C18.063 23.6572 16.7248 23.114 15.143 23.114C13.5224 23.114 12.1668 23.6572 11.0742 24.7416Z" fill="white"/>
<path d="M31.2578 41.1518V0H39.6662V41.1518H31.2578Z" fill="white"/>
<path d="M43.3243 16.608V7.47266H51.7326V16.608H56.8689V23.0721H51.7326V30.8678C51.7326 33.1321 52.3669 34.2633 53.6354 34.2633C53.9546 34.2633 54.2871 34.201 54.6334 34.0764C54.9834 33.9479 55.2541 33.8195 55.4455 33.6949L55.7318 33.5002L57.8202 40.3458C56.0141 41.3621 53.9546 41.8722 51.6398 41.8722C50.056 41.8722 48.6946 41.5938 47.5555 41.0389C46.4146 40.4783 45.5522 39.7286 44.9641 38.7883C44.3763 37.8497 43.9548 36.8607 43.7033 35.821C43.45 34.7833 43.3243 33.6754 43.3243 32.4954V23.0721H39.8047V16.608H43.3243Z" fill="white"/>
<path d="M70.1733 22.8258C68.5895 22.8258 67.2261 23.4176 66.0813 24.6014C64.9403 25.7814 64.3718 27.1988 64.3718 28.8537C64.3718 30.5476 64.9403 31.9825 66.0813 33.1605C67.2261 34.3404 68.5895 34.9283 70.1733 34.9283C70.9312 34.9283 71.6507 34.8349 72.3313 34.648C73.016 34.4572 73.5169 34.2645 73.832 34.0716L74.2575 33.7835L77.1118 39.6712C76.8895 39.8271 76.58 40.0256 76.1836 40.2632C75.7852 40.5026 74.884 40.8297 73.4762 41.2444C72.0684 41.6591 70.5541 41.8674 68.9356 41.8674C65.356 41.8674 62.2097 40.6019 59.4985 38.067C56.7911 35.5281 55.4375 32.4887 55.4375 28.9472C55.4375 25.3764 56.7911 22.3079 59.4985 19.7417C62.2097 17.1718 65.356 15.8867 68.9356 15.8867C70.5541 15.8867 72.0451 16.0795 73.4066 16.463C74.768 16.8427 75.7349 17.2243 76.3074 17.6079L77.1118 18.1842L74.2575 23.9706C73.2152 23.2074 71.8538 22.8258 70.1733 22.8258Z" fill="white"/>
<path d="M78.5001 16.608V7.47266H86.9084V16.608H92.0445V23.0721H86.9084V30.8678C86.9084 33.1321 87.5427 34.2633 88.8112 34.2633C89.1303 34.2633 89.4629 34.201 89.809 34.0764C90.1591 33.9479 90.4299 33.8195 90.6213 33.6949L90.9075 33.5002L92.996 40.3458C91.1899 41.3621 89.1303 41.8722 86.8156 41.8722C85.2316 41.8722 83.8703 41.5938 82.7312 41.0389C81.5903 40.4783 80.7278 39.7286 80.1399 38.7883C79.5521 37.8497 79.1305 36.8607 78.8791 35.821C78.6258 34.7833 78.5001 33.6754 78.5001 32.4954V23.0721H74.9805V16.608H78.5001Z" fill="white"/>
<path d="M92.3672 41.151V16.6033H100.775V20.1468H100.868C100.934 20.0182 101.038 19.8567 101.178 19.664C101.321 19.473 101.63 19.1383 102.106 18.6592C102.58 18.1823 103.084 17.7539 103.622 17.3742C104.164 16.9907 104.862 16.648 105.718 16.3462C106.573 16.0405 107.445 15.8867 108.333 15.8867C109.249 15.8867 110.153 16.0152 111.04 16.2684C111.926 16.5233 112.576 16.7785 112.99 17.0316L113.655 17.421L110.135 24.5937C109.093 23.7019 107.637 23.2542 105.765 23.2542C104.753 23.2542 103.881 23.478 103.15 23.9239C102.423 24.3718 101.907 24.913 101.603 25.5517C101.303 26.1903 101.089 26.7335 100.961 27.1793C100.837 27.6271 100.775 27.9776 100.775 28.2306V41.151H92.3672Z" fill="white"/>
<path d="M112.574 41.1518V0H120.982V41.1518H112.574Z" fill="white"/>
<path d="M37.5175 46.7812L40.4801 54.1797H38.6854L38.1361 52.7H35.3438L34.7946 54.1797H33L35.9626 46.7812H37.5175ZM37.5716 51.2204L36.7515 49.0631H36.7284L35.9085 51.2204H37.5716Z" fill="white"/>
<path d="M44.8855 46.7812V52.7H47.415V54.1797H43.207V46.7812H44.8855Z" fill="white"/>
<path d="M50.1992 48.261V46.7812H55.3663V48.261H53.6259V54.1797H51.9473V48.261H50.1992Z" fill="white"/>
<path d="M62.6064 46.7812V48.261H60.0771V49.7329H62.4981V51.2126H60.0771V52.7H62.6064V54.1797H58.3984V46.7812H62.6064Z" fill="white"/>
<path d="M66.0078 46.7812H68.6379C69.3438 46.7812 69.918 46.972 70.3629 47.3497C70.8115 47.7294 71.0358 48.2725 71.0358 48.9774C71.0358 49.5226 70.8985 49.9801 70.6259 50.3481C70.3571 50.7121 69.9916 50.9692 69.5275 51.119L72.0568 54.1797H69.9297L67.6864 51.2515V54.1797H66.0078V46.7812ZM67.6864 50.06H67.8798C68.0346 50.06 68.1621 50.0581 68.2666 50.0522C68.3749 50.0483 68.4948 50.0269 68.6301 49.9898C68.7694 49.9549 68.8797 49.9042 68.9628 49.8419C69.0498 49.7756 69.1213 49.6783 69.1793 49.5537C69.2413 49.4253 69.2721 49.2714 69.2721 49.0943C69.2721 48.9131 69.2413 48.7594 69.1793 48.6347C69.1213 48.5101 69.0498 48.4166 68.9628 48.3544C68.8797 48.2881 68.7694 48.2356 68.6301 48.1986C68.4948 48.1636 68.3749 48.1422 68.2666 48.1363C68.1621 48.1266 68.0346 48.1207 67.8798 48.1207H67.6864V50.06Z" fill="white"/>
<path d="M76.4831 49.5849V54.1797H74.8047V46.7812H76.4831L79.4071 51.3683H79.4226V46.7812H81.0934V54.1797H79.4226L76.4986 49.5849H76.4831Z" fill="white"/>
<path d="M88.3339 46.7812L91.2965 54.1797H89.5019L88.9527 52.7H86.1602L85.611 54.1797H83.8164L86.779 46.7812H88.3339ZM88.388 51.2204L87.5681 49.0631H87.5448L86.7249 51.2204H88.388Z" fill="white"/>
<path d="M93.5391 48.261V46.7812H98.7064V48.261H96.9659V54.1797H95.2873V48.261H93.5391Z" fill="white"/>
<path d="M103.417 46.7812V54.1797H101.738V46.7812H103.417Z" fill="white"/>
<path d="M109.208 54.1797L106.129 46.7812H108.016L109.873 51.641L111.722 46.7812H113.609L110.53 54.1797H109.208Z" fill="white"/>
<path d="M120.544 46.7812V48.261H118.015V49.7329H120.436V51.2126H118.015V52.7H120.544V54.1797H116.336V46.7812H120.544Z" fill="white"/>
<path d="M64.5318 61.9967C64.7832 61.9967 65.0308 61.9579 65.2744 61.8799C65.5161 61.802 65.694 61.7281 65.8081 61.654L65.9705 61.5373L66.69 62.9781C66.6629 62.9937 66.63 63.0171 66.5894 63.0481C66.5468 63.0793 66.4503 63.1376 66.2955 63.2195C66.1447 63.2974 65.9823 63.3674 65.8081 63.4298C65.638 63.4881 65.4136 63.5388 65.1351 63.5855C64.8568 63.6323 64.5667 63.6555 64.2687 63.6555C63.5881 63.6555 62.9403 63.4881 62.3273 63.1493C61.7181 62.8125 61.2249 62.3472 60.8499 61.7554C60.4728 61.1634 60.2852 60.5248 60.2852 59.8395C60.2852 59.3158 60.3953 58.8153 60.6178 58.3364C60.8383 57.8593 61.1303 57.4524 61.4919 57.1138C61.8574 56.771 62.2828 56.4984 62.7682 56.2959C63.2575 56.0895 63.7583 55.9844 64.2687 55.9844C64.7485 55.9844 65.1855 56.0429 65.5839 56.1558C65.986 56.2707 66.2684 56.3854 66.4348 56.4984L66.69 56.6698L65.9705 58.1027C65.9281 58.0676 65.8661 58.0249 65.7849 57.9781C65.7019 57.9276 65.5335 57.8593 65.2822 57.7756C65.0347 57.688 64.7832 57.6433 64.5318 57.6433C64.1296 57.6433 63.766 57.7114 63.4412 57.8458C63.1201 57.9761 62.8688 58.1495 62.6831 58.3676C62.4975 58.5818 62.3543 58.8114 62.2576 59.0607C62.159 59.3099 62.1107 59.563 62.1107 59.8161C62.1107 60.3828 62.3196 60.889 62.7372 61.3349C63.155 61.7767 63.7525 61.9967 64.5318 61.9967Z" fill="white"/>
<path d="M69.4336 59.8161C69.4336 58.7472 69.7971 57.8419 70.5242 57.0982C71.2513 56.3563 72.1255 55.9844 73.1465 55.9844C74.1715 55.9844 75.0435 56.3563 75.7611 57.0982C76.4824 57.8361 76.844 58.7414 76.844 59.8161C76.844 60.9026 76.4901 61.8137 75.7843 62.5497C75.0765 63.2876 74.1986 63.6555 73.1465 63.6555C72.0675 63.6555 71.1779 63.2896 70.4779 62.5575C69.7817 61.8254 69.4336 60.9124 69.4336 59.8161ZM71.2436 59.8161C71.2436 60.2055 71.3017 60.5618 71.4216 60.8831C71.5395 61.2005 71.7484 61.471 72.0481 61.693C72.346 61.9169 72.7134 62.0279 73.1465 62.0279C73.7692 62.0279 74.2391 61.8137 74.5544 61.3815C74.8735 60.9512 75.034 60.4294 75.034 59.8161C75.034 59.2146 74.8716 58.6986 74.5466 58.2664C74.2218 57.8302 73.7537 57.6121 73.1465 57.6121C72.5373 57.6121 72.0675 57.8302 71.7387 58.2664C71.4079 58.6986 71.2436 59.2146 71.2436 59.8161Z" fill="white"/>
<path d="M81.6747 58.9327V63.5275H79.9961V56.1289H81.6747L84.5987 60.7161H84.6142V56.1289H86.285V63.5275H84.6142L81.6902 58.9327H81.6747Z" fill="white"/>
<path d="M89.3281 57.6086V56.1289H94.4954V57.6086H92.755V63.5275H91.0764V57.6086H89.3281Z" fill="white"/>
<path d="M97.5195 56.1289H100.149C100.855 56.1289 101.43 56.3197 101.874 56.6975C102.323 57.0771 102.547 57.6203 102.547 58.3251C102.547 58.8703 102.41 59.3279 102.137 59.6958C101.869 60.0599 101.503 60.3169 101.039 60.4668L103.569 63.5275H101.441L99.198 60.5993V63.5275H97.5195V56.1289ZM99.198 59.4077H99.3914C99.5461 59.4077 99.6738 59.4057 99.7782 59.3999C99.8865 59.396 100.006 59.3745 100.142 59.3376C100.281 59.3025 100.391 59.252 100.474 59.1896C100.561 59.1235 100.633 59.0261 100.691 58.9015C100.753 58.7729 100.784 58.6192 100.784 58.4419C100.784 58.2609 100.753 58.107 100.691 57.9825C100.633 57.8579 100.561 57.7645 100.474 57.7021C100.391 57.6359 100.281 57.5833 100.142 57.5464C100.006 57.5113 99.8865 57.4898 99.7782 57.484C99.6738 57.4742 99.5461 57.4684 99.3914 57.4684H99.198V59.4077Z" fill="white"/>
<path d="M105.992 59.8161C105.992 58.7472 106.356 57.8419 107.083 57.0982C107.81 56.3563 108.684 55.9844 109.705 55.9844C110.73 55.9844 111.602 56.3563 112.32 57.0982C113.041 57.8361 113.403 58.7414 113.403 59.8161C113.403 60.9026 113.049 61.8137 112.343 62.5497C111.635 63.2876 110.757 63.6555 109.705 63.6555C108.626 63.6555 107.737 63.2896 107.036 62.5575C106.34 61.8254 105.992 60.9124 105.992 59.8161ZM107.802 59.8161C107.802 60.2055 107.86 60.5618 107.98 60.8831C108.098 61.2005 108.307 61.471 108.607 61.693C108.905 61.9169 109.272 62.0279 109.705 62.0279C110.328 62.0279 110.798 61.8137 111.113 61.3815C111.432 60.9512 111.593 60.4294 111.593 59.8161C111.593 59.2146 111.43 58.6986 111.105 58.2664C110.78 57.8302 110.312 57.6121 109.705 57.6121C109.096 57.6121 108.626 57.8302 108.297 58.2664C107.967 58.6986 107.802 59.2146 107.802 59.8161Z" fill="white"/>
<path d="M118.245 56.1289V62.0478H120.775V63.5275H116.566V56.1289H118.245Z" fill="white"/>
<path d="M123.978 1.90047H122.637V1.13672H126.146V1.90047H124.804V6.49922H123.978V1.90047ZM131.779 1.13672V6.49922H130.957V2.84703L130.996 2.16047L130.84 2.93234L129.709 6.15797H128.9L127.773 2.93234L127.617 2.16047L127.656 2.84703V6.49922H126.834V1.13672H127.957L129.248 5.15047L129.306 5.47141L129.361 5.15047L130.66 1.13672H131.779Z" fill="white"/>
</g>
<defs>
<clipPath id="clip0_13973_82303">
<rect width="133" height="65" fill="white" transform="translate(0.5)"/>
</clipPath>
</defs>
</svg>
