<svg width="48" height="48" viewBox="0 0 48 48" fill="none" xmlns="http://www.w3.org/2000/svg">
<path fill-rule="evenodd" clip-rule="evenodd" d="M16.1399 10.0024C12.9499 9.78243 10.4099 11.6344 8.63389 13.9604C6.84789 16.3004 5.58989 19.4004 4.89389 22.4964C4.20189 25.5904 4.02789 28.8744 4.58589 31.6244C5.12989 34.2964 6.51389 37.0444 9.42589 37.9144C12.2039 38.7444 14.6959 37.5644 16.5999 35.9624C18.5079 34.3584 20.1599 32.0704 21.4919 29.8604C22.5359 28.1264 23.4279 26.3604 24.1279 24.8524C24.8279 26.3584 25.7199 28.1264 26.7619 29.8604C28.0939 32.0704 29.7459 34.3584 31.6539 35.9624C33.5579 37.5644 36.0499 38.7444 38.8279 37.9144C41.7399 37.0444 43.1239 34.2964 43.6679 31.6244C44.2279 28.8744 44.0519 25.5904 43.3599 22.4964C42.6639 19.4004 41.4059 16.2984 39.6199 13.9604C37.8459 11.6344 35.3059 9.78043 32.1159 10.0024C28.6479 10.2424 26.1759 12.9404 24.7419 14.9784C24.5294 15.2832 24.3247 15.5933 24.1279 15.9084C23.9312 15.5928 23.7258 15.2826 23.5119 14.9784C22.0779 12.9384 19.6079 10.2444 16.1399 10.0024ZM21.8399 20.0524C21.2739 21.4824 19.8999 24.7484 18.0639 27.7984C16.8219 29.8624 15.4379 31.7144 14.0239 32.9024C12.6099 34.0904 11.4999 34.3584 10.5739 34.0824C9.78189 33.8464 8.93989 32.9624 8.50589 30.8284C8.08989 28.7744 8.19189 26.0784 8.79789 23.3724C9.40589 20.6664 10.4739 18.1444 11.8139 16.3864C13.1639 14.6164 14.5519 13.9024 15.8619 13.9944C17.3939 14.1004 18.9219 15.4044 20.2379 17.2784C20.9739 18.3244 21.5239 19.3824 21.8379 20.0504L21.8399 20.0524ZM26.4159 20.0524C26.9799 21.4824 28.3559 24.7484 30.1899 27.7984C31.4339 29.8624 32.8179 31.7144 34.2299 32.9024C35.6459 34.0924 36.7539 34.3584 37.6819 34.0824C38.4719 33.8464 39.3139 32.9624 39.7479 30.8284C40.1659 28.7744 40.0639 26.0784 39.4559 23.3724C38.8479 20.6664 37.7819 18.1444 36.4399 16.3864C35.0899 14.6164 33.7039 13.9024 32.3919 13.9944C30.8599 14.1004 29.3319 15.4044 28.0159 17.2784C27.4063 18.1563 26.8712 19.0835 26.4159 20.0504V20.0524Z" fill="white" fill-opacity="0.71"/>
</svg>
