<svg width="48" height="48" viewBox="0 0 48 48" fill="none" xmlns="http://www.w3.org/2000/svg">
<g clip-path="url(#clip0_13691_68615)">
<path d="M44.8456 19.6389C45.3898 18.0237 45.5782 16.31 45.398 14.6151C45.2178 12.9203 44.6732 11.2845 43.8016 9.81988C42.4885 7.58991 40.5072 5.82959 38.1381 4.78827C35.769 3.74696 33.1323 3.47744 30.6016 4.01788C29.1528 2.43163 27.3137 1.2525 25.2676 0.597885C23.215 -0.0645836 21.0254 -0.182433 18.9136 0.255885C16.8064 0.691354 14.8503 1.67199 13.2406 3.09988C11.6391 4.51584 10.4405 6.33019 9.76658 8.35888C8.07817 8.70198 6.48067 9.39597 5.07758 10.3959C3.68306 11.3915 2.51793 12.6743 1.66058 14.1579C0.35442 16.3718 -0.204391 18.9473 0.0668352 21.5034C0.338061 24.0595 1.42491 26.4604 3.16658 28.3509C2.62105 29.9661 2.43135 31.6801 2.61052 33.3755C2.78969 35.0709 3.33348 36.7074 4.20458 38.1729C5.5184 40.4035 7.50095 42.1639 9.87122 43.2047C12.2415 44.2456 14.8792 44.514 17.4106 43.9719C18.5566 45.2469 19.9666 46.2639 21.5416 46.9569C23.1196 47.6499 24.8266 48.0069 26.5516 47.9949C31.8916 48.0009 36.6256 44.5989 38.2546 39.5829C39.9432 39.2389 41.5407 38.5439 42.9436 37.5429C44.3389 36.5484 45.505 35.2667 46.3636 33.7839C47.6575 31.5735 48.2083 29.0064 47.935 26.4598C47.6618 23.9132 46.5789 21.5244 44.8456 19.6389ZM26.5546 44.8539C24.4267 44.8595 22.3633 44.1233 20.7196 42.7719L21.0076 42.6099L30.6976 37.0959C30.9375 36.9574 31.1371 36.7585 31.2766 36.5191C31.416 36.2797 31.4905 36.008 31.4926 35.7309V22.2609L35.5906 24.5949C35.6306 24.6169 35.6556 24.6519 35.6656 24.6999V35.8659C35.6566 40.8249 31.5826 44.8419 26.5546 44.8539ZM6.96458 36.6039C5.89822 34.7865 5.51526 32.6484 5.88458 30.5739L6.16958 30.7449L15.8686 36.2679C16.1092 36.4058 16.3817 36.4783 16.6591 36.4783C16.9364 36.4783 17.2089 36.4058 17.4496 36.2679L29.2966 29.5299V34.1949C29.2964 34.2192 29.2903 34.2431 29.2788 34.2645C29.2673 34.286 29.2507 34.3043 29.2306 34.3179L19.4176 39.8979C15.0556 42.3759 9.48158 40.9029 6.96458 36.6039ZM4.41758 15.7839C5.50142 13.9481 7.19789 12.5533 9.20858 11.8449V23.1999C9.2057 23.4753 9.2772 23.7463 9.41554 23.9845C9.55388 24.2226 9.75393 24.419 9.99458 24.5529L21.7846 31.2639L17.6866 33.6009C17.6645 33.613 17.6397 33.6193 17.6146 33.6193C17.5894 33.6193 17.5647 33.613 17.5426 33.6009L7.75358 28.0239C6.72201 27.4425 5.81622 26.6619 5.0888 25.7276C4.36138 24.7932 3.82682 23.7237 3.51618 22.581C3.20553 21.4383 3.12499 20.2454 3.27921 19.0713C3.43344 17.8973 3.81937 16.7655 4.41458 15.7419L4.41758 15.7839ZM38.0656 23.4969L26.2396 16.7259L30.3256 14.3979C30.3477 14.3858 30.3724 14.3795 30.3976 14.3795C30.4227 14.3795 30.4475 14.3858 30.4696 14.3979L40.2646 19.9779C41.7591 20.8244 42.9801 22.0808 43.7836 23.5989C44.5866 25.1073 44.9373 26.8155 44.7936 28.5183C44.65 30.2211 44.018 31.8463 42.9736 33.1989C41.9217 34.5595 40.5076 35.5961 38.8936 36.1899V24.8349C38.886 24.559 38.8054 24.2901 38.6599 24.0556C38.5144 23.821 38.3093 23.6263 38.0656 23.4969ZM42.1456 17.4549L41.8546 17.2839L32.1766 11.7189C31.9349 11.5793 31.6607 11.5059 31.3816 11.5059C31.1025 11.5059 30.8283 11.5793 30.5866 11.7189L18.7456 18.4569V13.7919C18.7422 13.7685 18.7458 13.7446 18.756 13.7233C18.7661 13.7019 18.7823 13.6841 18.8026 13.6719L28.5976 8.09789C30.1011 7.2429 31.815 6.82856 33.543 6.90231C35.271 6.97606 36.9434 7.53491 38.3686 8.51488C39.7906 9.48988 40.8976 10.8489 41.5666 12.4239C42.2356 14.0019 42.4336 15.7329 42.1396 17.4159L42.1456 17.4549ZM16.5076 25.7229L12.4156 23.3979C12.3948 23.3868 12.3769 23.371 12.3633 23.3517C12.3498 23.3324 12.3409 23.3102 12.3376 23.2869V12.1449C12.3376 10.4349 12.8356 8.76388 13.7656 7.32388C14.6956 5.88388 16.0216 4.73188 17.5906 4.00888C19.1609 3.28575 20.9026 3.01767 22.6176 3.2351C24.3327 3.45254 25.9524 4.14677 27.2926 5.23888L27.0046 5.40088L17.3146 10.9149C17.0746 11.0534 16.875 11.2522 16.7356 11.4917C16.5961 11.7311 16.5217 12.0028 16.5196 12.2799L16.5076 25.7229ZM18.7336 20.9919L24.0076 17.9919L29.2936 20.9919V26.9919L24.0286 29.9919L18.7426 26.9919L18.7336 20.9919Z" fill="white" fill-opacity="0.71"/>
</g>
<defs>
<clipPath id="clip0_13691_68615">
<rect width="48" height="48" fill="white"/>
</clipPath>
</defs>
</svg>
