<svg width="56" height="48" viewBox="0 0 56 48" fill="none" xmlns="http://www.w3.org/2000/svg">
<path d="M31.2059 22.5595H34.0456L34.2089 23.3318L34.7946 22.9118C35.4685 22.5017 36.2537 22.3128 37.0403 22.3713C37.827 22.4299 38.5756 22.7331 39.1813 23.2385C40.1963 24.1251 40.8543 25.3525 41.0339 26.6871C41.3288 28.2611 41.1752 29.8863 40.5906 31.3771C40.3502 32.0595 39.9319 32.6652 39.3789 33.1316C38.8259 33.5981 38.1584 33.9083 37.4453 34.0301C36.5432 34.2069 35.6079 34.0216 34.8413 33.5145L34.4913 33.3045V36.9375L31.2526 37.6188L31.2059 22.5595ZM34.4423 28.2365V30.4415C34.4395 30.512 34.4527 30.5823 34.481 30.6469C34.5093 30.7116 34.5519 30.769 34.6056 30.8148C34.8106 30.9933 35.0514 31.1258 35.312 31.2032C35.5725 31.2806 35.8466 31.3013 36.1158 31.2637C36.385 31.2261 36.643 31.1311 36.8724 30.9852C37.1017 30.8394 37.2971 30.646 37.4453 30.4181C37.8631 29.7094 38.0597 28.892 38.0099 28.0708C38.018 27.3294 37.8052 26.6024 37.3986 25.9825C37.2566 25.7505 37.0646 25.5531 36.8365 25.4047C36.6085 25.2564 36.3503 25.1609 36.0806 25.1251C35.8109 25.0893 35.5367 25.1142 35.2779 25.198C35.019 25.2817 34.7822 25.4222 34.5846 25.6091C34.5005 25.6979 34.4509 25.8137 34.4446 25.9358C34.4213 26.7571 34.4446 27.5085 34.4446 28.2365M45.0006 29.4311C45.0038 29.7473 45.0873 30.0575 45.2432 30.3326C45.3991 30.6077 45.6223 30.8386 45.8919 31.0038C46.5663 31.3655 47.3433 31.4891 48.0969 31.3538C48.9509 31.3071 49.7886 31.0925 50.5586 30.7238V32.9965C50.5699 33.0855 50.5507 33.1758 50.5041 33.2525C50.4575 33.3292 50.3862 33.3878 50.3019 33.4188C49.0263 34.0064 47.6143 34.234 46.2186 34.0768C45.0825 33.961 44.0215 33.4556 43.2156 32.6465C42.5563 31.9399 42.1099 31.0615 41.9276 30.1125C41.5225 28.3861 41.7201 26.5731 42.4876 24.9745C42.8571 24.1333 43.4764 23.426 44.2614 22.9486C45.0464 22.4712 45.9592 22.2467 46.8762 22.3055C47.7931 22.3644 48.6697 22.7037 49.3873 23.2775C50.1048 23.8514 50.6286 24.6319 50.8876 25.5135C51.1629 26.2671 51.3146 27.0581 51.3333 27.8608V29.4545H45.0006V29.4311ZM48.2836 27.0861C48.3199 26.7416 48.2653 26.3936 48.1253 26.0768C47.9853 25.7599 47.7647 25.4853 47.4856 25.2801C47.2418 25.1084 46.9508 25.0163 46.6526 25.0163C46.3544 25.0163 46.0634 25.1084 45.8196 25.2801C45.5292 25.4841 45.2966 25.7598 45.1444 26.0804C44.9923 26.401 44.9259 26.7555 44.9516 27.1095L48.2836 27.0861ZM4.97927 30.2991L5.56727 30.5791C6.3606 30.9665 7.21927 31.2045 8.10127 31.2861C8.45904 31.3188 8.81838 31.3188 9.17927 31.2861C9.30857 31.2548 9.42629 31.1873 9.51873 31.0916C9.61118 30.9959 9.67453 30.8759 9.70143 30.7456C9.72832 30.6153 9.71764 30.48 9.67064 30.3555C9.62364 30.2311 9.54224 30.1225 9.43594 30.0425C9.20105 29.8791 8.95138 29.7384 8.68693 29.6201C7.9356 29.3145 7.18427 29.0555 6.34193 28.7055C5.8883 28.4583 5.50094 28.1055 5.2127 27.6768C4.92445 27.2481 4.74382 26.7562 4.68612 26.2429C4.62842 25.7295 4.69535 25.2098 4.88124 24.7279C5.06712 24.2459 5.36648 23.8158 5.75393 23.4741C6.58152 22.796 7.617 22.4228 8.68693 22.4171C9.82793 22.3471 10.9689 22.5128 12.0423 22.9095C12.1085 22.926 12.1665 22.9663 12.2051 23.0226C12.2438 23.0789 12.2606 23.1474 12.2523 23.2151V25.9591C11.7366 25.7958 11.2443 25.5625 10.7286 25.4458C10.2106 25.3268 9.48493 25.2801 8.8736 25.2101C8.70461 25.172 8.52926 25.172 8.36027 25.2101C8.25159 25.24 8.15383 25.3006 8.07874 25.3847C8.00364 25.4687 7.9544 25.5726 7.93691 25.684C7.91942 25.7953 7.93443 25.9094 7.98014 26.0124C8.02585 26.1154 8.10031 26.2031 8.1946 26.2648C8.44505 26.4328 8.71105 26.5736 8.9926 26.6871C9.78905 26.9516 10.5707 27.2565 11.3376 27.6018C11.9416 27.8944 12.4285 28.3833 12.7184 28.9886C13.0084 29.594 13.0842 30.2798 12.9336 30.9338C12.8441 31.6525 12.5232 32.3226 12.0194 32.8429C11.5155 33.3631 10.8561 33.7054 10.1406 33.8178C8.4466 34.2168 6.66627 34.0511 5.07493 33.3511C5.03695 33.3349 5.00398 33.3088 4.97938 33.2756C4.95478 33.2424 4.93944 33.2032 4.93493 33.1621V30.3458C4.9482 30.3281 4.96158 30.3124 4.97927 30.2991ZM13.6593 20.4478L16.8023 19.7665V22.5595H19.1496V25.3035H16.7999V29.9935C16.7862 30.1869 16.8188 30.3807 16.8949 30.559C16.971 30.7373 17.0885 30.8949 17.2377 31.0187C17.3868 31.1426 17.5633 31.2291 17.7526 31.2711C17.9418 31.3132 18.1384 31.3095 18.3259 31.2605C18.6339 31.2294 18.9388 31.1749 19.2406 31.0971V33.4655C19.2406 33.6288 19.2406 33.7245 19.0539 33.7711C17.9571 34.1816 16.7488 34.1816 15.6519 33.7711C15.0899 33.5661 14.5997 33.2019 14.2413 32.7229C13.8829 32.2439 13.6717 31.6709 13.6336 31.0738C13.6215 30.9177 13.6215 30.7609 13.6336 30.6048V20.4478H13.6593ZM20.2999 22.5828H22.8549C23.0416 22.5828 23.0883 22.5828 23.1116 22.7928C23.1536 23.0308 23.2088 23.2657 23.2773 23.4975L23.3706 23.2641C23.6413 22.9184 24.0111 22.6635 24.4305 22.5334C24.85 22.4033 25.2991 22.4043 25.7179 22.5361V25.4435C25.3581 25.4226 24.9974 25.4226 24.6376 25.4435C24.3667 25.4703 24.1036 25.5496 23.8629 25.6768C23.6699 25.7622 23.5078 25.905 23.3988 26.0858C23.2899 26.2666 23.2393 26.4766 23.2539 26.6871V33.8411H20.2976L20.2999 22.5828ZM26.7726 22.5828H29.9856V33.8645H26.7726V22.5828ZM26.7493 21.5958V19.2508C26.7493 19.1108 26.7493 19.0408 26.9126 19.0175L29.9156 18.3828V20.9168L26.7493 21.5958Z" fill="white" fill-opacity="0.71"/>
</svg>
